<?xml version="1.0" encoding="UTF-8"?>
<svg width="200px" height="61px" viewBox="0 0 200 61" version="1.1" xmlns="http://www.w3.org/2000/svg" xmlns:xlink="http://www.w3.org/1999/xlink">
    <!-- Generator: Sketch 59.1 (86144) - https://sketch.com -->
    <title>preview</title>
    <desc>Created with Sketch.</desc>
    <g id="preview" stroke="none" stroke-width="1" fill="none" fill-rule="evenodd">
        <path d="M194.494551,4.97379915e-14 C197.535126,4.97379915e-14 200,2.47089054 200,5.51252926 L200,54.6569623 C200,57.7014481 197.525471,60.1694915 194.494551,60.1694915 L5.50544919,60.1694915 C2.46487356,60.1694915 0,57.698601 0,54.6569623 L0,5.51252926 C0,2.46804342 2.47452917,4.97379915e-14 5.50544919,4.97379915e-14 L194.494551,4.97379915e-14 Z M36,13 C26.0588926,13 18,21.0588926 18,31 C18,40.9411074 26.0588926,49 36,49 C45.9411074,49 54,40.9411074 54,31 C54,21.0588926 45.9411074,13 36,13 Z M36,16.3749911 C44.0771232,16.3749911 50.6250089,22.9228768 50.6250089,31 C50.6250089,39.0771232 44.0771232,45.6250089 36,45.6250089 C27.9228768,45.6250089 21.3749911,39.0771232 21.3749911,31 C21.3749911,22.9228768 27.9228768,16.3749911 36,16.3749911 Z M100.792383,26.2636719 C96.9076172,26.2636719 94.4447266,29.0693359 94.4447266,33.3222656 C94.4447266,37.6132812 96.8822266,40.2666016 100.919336,40.2666016 C104.105859,40.2666016 106.467187,38.5146484 106.873437,35.9755859 L103.91543,35.9755859 C103.572656,37.0927734 102.455469,37.8291016 100.982812,37.8291016 C98.9134766,37.8291016 97.5931641,36.3818359 97.5931641,34.2236328 L97.5931641,34.0332031 L107.000391,34.0332031 L107.000391,33.0048828 C107.000391,28.9169922 104.613672,26.2636719 100.792383,26.2636719 Z M136.276367,26.2636719 C132.391602,26.2636719 129.928711,29.0693359 129.928711,33.3222656 C129.928711,37.6132812 132.366211,40.2666016 136.40332,40.2666016 C139.589844,40.2666016 141.951172,38.5146484 142.357422,35.9755859 L139.399414,35.9755859 C139.056641,37.0927734 137.939453,37.8291016 136.466797,37.8291016 C134.397461,37.8291016 133.077148,36.3818359 133.077148,34.2236328 L133.077148,34.0332031 L142.484375,34.0332031 L142.484375,33.0048828 C142.484375,28.9169922 140.097656,26.2636719 136.276367,26.2636719 Z M76.734375,21.6806641 L69.6123047,21.6806641 L69.6123047,40 L72.8876953,40 L72.8876953,33.9443359 L76.5947266,33.9443359 C80.3017578,33.9443359 82.9042969,31.46875 82.9042969,27.8125 C82.9042969,24.15625 80.3779297,21.6806641 76.734375,21.6806641 Z M92.0958984,26.3144531 C90.5089844,26.3144531 89.3283203,27.2539062 88.8712891,28.8916016 L88.8078125,28.8916016 L88.8078125,26.5429688 L85.7736328,26.5429688 L85.7736328,40 L88.9347656,40 L88.9347656,32.1669922 C88.9347656,30.2753906 90.0138672,29.1201172 91.8039062,29.1201172 C92.3371094,29.1201172 92.8195312,29.1962891 93.0861328,29.2978516 L93.0861328,26.4414062 L92.8181207,26.385923 C92.6149957,26.3483073 92.3667318,26.3144531 92.0958984,26.3144531 Z M111.939062,26.5429688 L108.562109,26.5429688 L113.335547,40 L116.814062,40 L121.549414,26.5429688 L118.248633,26.5429688 L115.125586,37.0673828 L115.062109,37.0673828 L111.939062,26.5429688 Z M127.033984,26.5429688 L123.872852,26.5429688 L123.872852,40 L127.033984,40 L127.033984,26.5429688 Z M147.435742,26.5429688 L144.261914,26.5429688 L147.905469,40 L151.20625,40 L153.846875,30.1611328 L153.910352,30.1611328 L156.563672,40 L159.889844,40 L163.533398,26.5429688 L160.410352,26.5429688 L158.137891,36.8769531 L158.061719,36.8769531 L155.433789,26.5429688 L152.399609,26.5429688 L149.77168,36.8769531 L149.708203,36.8769531 L147.435742,26.5429688 Z M31.4999645,23.1249734 L31.4999645,38.8750266 L45,31 L31.4999645,23.1249734 Z M100.805078,28.7138672 C102.620508,28.7138672 103.839258,30.046875 103.902734,31.9511719 L97.6185547,31.9511719 C97.7455078,30.0722656 99.0277344,28.7138672 100.805078,28.7138672 Z M136.289062,28.7138672 C138.104492,28.7138672 139.323242,30.046875 139.386719,31.9511719 L133.102539,31.9511719 C133.229492,30.0722656 134.511719,28.7138672 136.289062,28.7138672 Z M75.8710937,24.359375 C78.2197266,24.359375 79.578125,25.6162109 79.578125,27.8125 C79.578125,30.0341797 78.2070312,31.3037109 75.8583984,31.3037109 L72.8876953,31.3037109 L72.8876953,24.359375 L75.8710937,24.359375 Z M125.44707,21.3378906 C124.469531,21.3378906 123.695117,22.0996094 123.695117,23.0644531 C123.695117,24.0166016 124.469531,24.7783203 125.44707,24.7783203 C126.437305,24.7783203 127.211719,24.0166016 127.211719,23.0644531 C127.211719,22.0996094 126.437305,21.3378906 125.44707,21.3378906 Z" id="形状结合" fill="#121212" fill-rule="nonzero"></path>
    </g>
</svg>