<?xml version="1.0" encoding="UTF-8"?>
<svg width="200px" height="61px" viewBox="0 0 200 61" version="1.1" xmlns="http://www.w3.org/2000/svg" xmlns:xlink="http://www.w3.org/1999/xlink">
    <!-- Generator: Sketch 57.1 (83088) - https://sketch.com -->
    <title>AppStore</title>
    <desc>Created with Sketch.</desc>
    <g id="页面-1" stroke="none" stroke-width="1" fill="none" fill-rule="evenodd">
        <g id="AppStore" fill-rule="nonzero">
            <path d="M0,5.51252926 C0,2.46804342 2.47452917,0 5.50544919,0 L194.494551,0 C197.535126,0 200,2.47089054 200,5.51252926 L200,54.6569623 C200,57.7014481 197.525471,60.1694915 194.494551,60.1694915 L5.50544919,60.1694915 C2.46487356,60.1694915 0,57.698601 0,54.6569623 L0,5.51252926 Z M44.5372956,30.3715253 C44.4929691,25.3785224 48.5710106,22.9494102 48.7574878,22.8363202 C46.4479223,19.4234796 42.8681722,18.9571768 41.6102156,18.9199965 C38.6036535,18.5993165 35.687273,20.7433798 34.1557146,20.7433798 C32.5935863,20.7433798 30.2351088,18.9509801 27.6932111,19.0036521 C24.4222182,19.054775 21.3621586,20.9742074 19.6838641,23.9548272 C16.2202801,30.0322551 18.8034474,38.9632702 22.1218237,43.8757158 C23.7817762,46.2831395 25.7214443,48.9678661 28.260285,48.8733662 C30.7440997,48.7711204 31.6719,47.2684171 34.6692911,47.2684171 C37.6391692,47.2684171 38.5104149,48.8733662 41.0996962,48.8113991 C43.7654025,48.7711204 45.4436969,46.3962295 47.0455663,43.9671174 C48.9638355,41.2126777 49.7342001,38.4938691 49.7647702,38.354443 C49.7036301,38.3343037 44.5892647,36.3560025 44.5372956,30.3715253 Z M39.6460914,15.6884098 C40.9820016,13.9951575 41.8960454,11.6915288 41.6423141,9.35381814 C39.70876,9.44057215 37.2906709,10.7093495 35.8982062,12.3654215 C34.6662341,13.8247478 33.5657131,16.2166797 33.8500144,18.4660871 C36.0220148,18.6303001 38.2520982,17.355326 39.6460914,15.6884098 Z" id="形状" fill="#121212"></path>
            <path d="M72.46,14.72 L75.12,14.72 L80.58,29 L78.08,29 L76.78,25.42 L70.8,25.42 L69.5,29 L67,29 L72.46,14.72 Z M71.5,23.5 L76.08,23.5 L73.84,17.24 L73.76,17.24 L71.5,23.5 Z M87.82,18.38 C89.34,18.38 90.54,18.92 91.42,20 C92.22,21 92.62,22.28 92.62,23.88 C92.62,25.4 92.22,26.66 91.44,27.66 C90.6,28.74 89.42,29.28 87.94,29.28 C86.74,29.28 85.7,28.7 84.86,27.58 L84.86,32.96 L82.58,32.96 L82.58,18.66 L84.7,18.66 L84.7,19.76 C85.42,18.84 86.46,18.38 87.82,18.38 Z M87.48,20.22 C86.58,20.22 85.9,20.56 85.42,21.28 C84.98,21.9 84.78,22.72 84.78,23.76 L84.78,23.92 C84.78,25 85.04,25.88 85.58,26.54 C86.06,27.14 86.66,27.44 87.4,27.44 C88.4,27.44 89.16,27.1 89.64,26.46 C90.06,25.86 90.28,25 90.28,23.88 C90.28,22.76 90.08,21.9 89.7,21.3 C89.22,20.58 88.48,20.22 87.48,20.22 Z M100.66,18.38 C102.18,18.38 103.38,18.92 104.26,20 C105.06,21 105.46,22.28 105.46,23.88 C105.46,25.4 105.06,26.66 104.28,27.66 C103.44,28.74 102.26,29.28 100.78,29.28 C99.58,29.28 98.54,28.7 97.7,27.58 L97.7,32.96 L95.42,32.96 L95.42,18.66 L97.54,18.66 L97.54,19.76 C98.26,18.84 99.3,18.38 100.66,18.38 Z M100.32,20.22 C99.42,20.22 98.74,20.56 98.26,21.28 C97.82,21.9 97.62,22.72 97.62,23.76 L97.62,23.92 C97.62,25 97.88,25.88 98.42,26.54 C98.9,27.14 99.5,27.44 100.24,27.44 C101.24,27.44 102,27.1 102.48,26.46 C102.9,25.86 103.12,25 103.12,23.88 C103.12,22.76 102.92,21.9 102.54,21.3 C102.06,20.58 101.32,20.22 100.32,20.22 Z M113.5,14.44 C115.18,14.44 116.5,14.78 117.44,15.48 C118.44,16.22 119.02,17.38 119.16,18.94 L116.84,18.94 C116.64,18.06 116.26,17.42 115.74,17.04 C115.22,16.64 114.42,16.46 113.38,16.46 C112.48,16.46 111.8,16.58 111.32,16.84 C110.72,17.14 110.44,17.64 110.44,18.32 C110.44,18.92 110.76,19.42 111.44,19.78 C111.74,19.94 112.56,20.24 113.88,20.66 C115.82,21.26 117.06,21.74 117.62,22.06 C118.86,22.8 119.48,23.82 119.48,25.14 C119.48,26.42 118.98,27.44 117.98,28.18 C116.98,28.9 115.56,29.28 113.74,29.28 C111.98,29.28 110.6,28.94 109.62,28.26 C108.42,27.42 107.76,26.1 107.66,24.28 L109.98,24.28 C110.14,25.36 110.52,26.14 111.14,26.6 C111.7,27 112.56,27.22 113.74,27.22 C114.78,27.22 115.62,27.04 116.22,26.7 C116.82,26.34 117.14,25.88 117.14,25.28 C117.14,24.52 116.68,23.92 115.8,23.48 C115.52,23.34 114.6,23.02 113.02,22.54 C111.26,21.98 110.16,21.58 109.74,21.34 C108.64,20.68 108.1,19.72 108.1,18.46 C108.1,17.2 108.62,16.2 109.7,15.48 C110.7,14.78 111.96,14.44 113.5,14.44 Z M125.32,15.32 L125.32,18.66 L127.62,18.66 L127.62,20.54 L125.32,20.54 L125.32,26.38 C125.32,26.62 125.36,26.8 125.48,26.94 C125.6,27.06 125.76,27.12 126,27.12 L127.36,27.12 L127.36,29 L125.62,29 C124.72,29 124.06,28.76 123.64,28.28 C123.24,27.84 123.04,27.22 123.04,26.38 L123.04,20.54 L121.18,20.54 L121.18,18.66 L123.04,18.66 L123.04,16.26 L125.32,15.32 Z M134.92,18.38 C136.48,18.38 137.74,18.88 138.7,19.92 C139.64,20.94 140.12,22.24 140.12,23.84 C140.12,25.42 139.64,26.72 138.72,27.72 C137.76,28.76 136.48,29.28 134.92,29.28 C133.34,29.28 132.08,28.76 131.12,27.72 C130.18,26.72 129.72,25.42 129.72,23.84 C129.72,22.24 130.18,20.94 131.14,19.92 C132.08,18.88 133.34,18.38 134.92,18.38 Z M134.92,20.24 C133.96,20.24 133.24,20.6 132.72,21.36 C132.28,22 132.06,22.84 132.06,23.84 C132.06,24.84 132.28,25.66 132.72,26.3 C133.24,27.04 133.96,27.42 134.92,27.42 C135.86,27.42 136.6,27.04 137.12,26.3 C137.56,25.64 137.8,24.82 137.8,23.84 C137.8,22.84 137.56,22 137.12,21.36 C136.6,20.6 135.86,20.24 134.92,20.24 Z M147.8,18.38 C148.3,18.38 148.74,18.46 149.1,18.64 L149.1,20.92 C148.58,20.76 148.1,20.7 147.62,20.7 C147.02,20.7 146.48,20.92 146,21.4 C145.44,21.94 145.18,22.64 145.18,23.52 L145.18,29 L142.92,29 L142.92,18.66 L145.18,18.66 L145.18,20.14 C145.46,19.62 145.78,19.22 146.16,18.94 C146.62,18.56 147.16,18.38 147.8,18.38 Z M155.6,18.38 C157.3,18.38 158.6,18.94 159.5,20.1 C160.32,21.14 160.74,22.6 160.74,24.46 L153,24.46 C153.08,25.42 153.34,26.16 153.78,26.66 C154.22,27.16 154.86,27.42 155.68,27.42 C156.38,27.42 156.94,27.26 157.38,26.94 C157.72,26.68 158.02,26.26 158.3,25.68 L160.58,25.68 C160.34,26.64 159.86,27.46 159.14,28.1 C158.22,28.88 157.08,29.28 155.7,29.28 C154.16,29.28 152.94,28.8 152.04,27.86 C151.08,26.88 150.6,25.54 150.6,23.82 C150.6,22.28 151.04,21 151.96,19.96 C152.84,18.9 154.06,18.38 155.6,18.38 Z M155.66,20.24 C154.9,20.24 154.32,20.44 153.88,20.88 C153.46,21.3 153.18,21.92 153.04,22.74 L158.36,22.74 C158.16,21.06 157.26,20.24 155.66,20.24 Z" id="形状" fill="#FFFFFF"></path>
            <path d="M78.672,41.624 L78.032,42.76 C75.904,42.424 73.6,41.08 72.912,39.816 C72.304,41.128 70.08,42.456 67.856,42.808 L67.184,41.688 C69.392,41.448 71.968,40.072 72.176,38.296 L67.776,38.296 L67.776,37.128 L78.096,37.128 L78.096,38.296 L73.68,38.296 C73.904,40.072 76.576,41.4 78.672,41.624 Z M73.6,50.12 L72.176,50.12 L72.176,45.224 L66.608,45.224 L66.608,44.072 L79.232,44.072 L79.232,45.224 L73.6,45.224 L73.6,50.12 Z M93.424,42.936 L92.656,44.056 C90.464,43.432 88.208,41.688 87.552,40.104 C86.992,41.704 84.72,43.448 82.448,44.04 L81.728,42.888 C84.016,42.488 86.832,40.488 86.832,38.136 L86.832,37.176 L88.288,37.176 L88.288,38.136 C88.288,40.472 91.296,42.52 93.424,42.936 Z M93.872,48.344 L81.248,48.344 L81.248,47.192 L86.816,47.192 L86.816,43.72 L88.24,43.72 L88.24,47.192 L93.872,47.192 L93.872,48.344 Z M104.016,45.528 L104.592,45.528 C106.432,45.528 109.008,45.384 110.416,45.08 L110.576,46.232 C109.12,46.536 106.72,46.696 104.176,46.712 L102.608,46.712 L102.608,37.608 L109.216,37.608 L109.216,38.776 L104.016,38.776 L104.016,45.528 Z M112.816,36.136 L112.816,41.592 L114.992,41.592 L114.992,42.776 L112.816,42.776 L112.816,50.12 L111.408,50.12 L111.408,36.136 L112.816,36.136 Z M127.776,39.336 C127.776,41.064 125.968,42.088 122.96,42.088 C119.936,42.088 118.176,41.064 118.176,39.336 C118.176,37.64 119.936,36.6 122.96,36.6 C125.968,36.6 127.776,37.64 127.776,39.336 Z M123.744,47.096 L122.336,47.096 L122.336,44.376 L116.656,44.376 L116.656,43.224 L129.28,43.224 L129.28,44.376 L123.744,44.376 L123.744,47.096 Z M122.96,37.768 C120.928,37.768 119.616,38.328 119.616,39.352 C119.616,40.376 120.928,40.936 122.944,40.936 C124.992,40.936 126.336,40.376 126.336,39.352 C126.336,38.328 125.008,37.768 122.96,37.768 Z M127.776,49.704 L118.304,49.704 L118.304,45.64 L119.712,45.64 L119.712,48.552 L127.776,48.552 L127.776,49.704 Z M143.92,48.344 L131.296,48.344 L131.296,47.192 L136.864,47.192 L136.864,44.984 L132.816,44.984 L132.816,40.488 L140.944,40.488 L140.944,38.44 L132.784,38.44 L132.784,37.288 L142.352,37.288 L142.352,41.64 L134.224,41.64 L134.224,43.832 L142.736,43.832 L142.736,44.984 L138.288,44.984 L138.288,47.192 L143.92,47.192 L143.92,48.344 Z M157.056,44.136 L147.568,44.136 L147.568,37.512 L156.928,37.512 L156.928,38.664 L148.976,38.664 L148.976,43 L157.056,43 L157.056,44.136 Z M158.56,48.232 L145.936,48.232 L145.936,47.08 L158.56,47.08 L158.56,48.232 Z" id="주소다운로드" fill="#FFFFFF"></path>
        </g>
    </g>
</svg>