<?xml version="1.0" encoding="UTF-8"?>
<svg width="200px" height="61px" viewBox="0 0 200 61" version="1.1" xmlns="http://www.w3.org/2000/svg" xmlns:xlink="http://www.w3.org/1999/xlink">
    <!-- Generator: Sketch 57.1 (83088) - https://sketch.com -->
    <title>Preview</title>
    <desc>Created with Sketch.</desc>
    <g id="页面-1" stroke="none" stroke-width="1" fill="none" fill-rule="evenodd">
        <g id="Preview" fill-rule="nonzero">
            <path d="M194.494551,4.97379915e-14 C197.535126,4.97379915e-14 200,2.47089054 200,5.51252926 L200,54.6569623 C200,57.7014481 197.525471,60.1694915 194.494551,60.1694915 L5.50544919,60.1694915 C2.46487356,60.1694915 0,57.698601 0,54.6569623 L0,5.51252926 C0,2.46804342 2.47452917,4.97379915e-14 5.50544919,4.97379915e-14 L194.494551,4.97379915e-14 Z M36,13 C26.0588926,13 18,21.0588926 18,31 C18,40.9411074 26.0588926,49 36,49 C45.9411074,49 54,40.9411074 54,31 C54,21.0588926 45.9411074,13 36,13 Z M36,16.3749911 C44.0771232,16.3749911 50.6250089,22.9228768 50.6250089,31 C50.6250089,39.0771232 44.0771232,45.6250089 36,45.6250089 C27.9228768,45.6250089 21.3749911,39.0771232 21.3749911,31 C21.3749911,22.9228768 27.9228768,16.3749911 36,16.3749911 Z M31.4999645,23.1249734 L31.4999645,38.8750266 L45,31 L31.4999645,23.1249734 Z" id="形状结合" fill="#121212"></path>
            <path d="M75.2,40.4 L73.42,40.4 L73.42,22.92 L75.2,22.92 L75.2,40.4 Z M70.06,36.06 L61.62,36.06 L61.62,24.42 L63.38,24.42 L63.38,28.78 L68.3,28.78 L68.3,24.4 L70.06,24.4 L70.06,36.06 Z M68.3,34.64 L68.3,30.22 L63.38,30.22 L63.38,34.64 L68.3,34.64 Z M91.4,40.4 L89.62,40.4 L89.62,22.92 L91.4,22.92 L91.4,40.4 Z M79.68,34.52 C82.24,34.52 85.48,34.42 87.7,33.98 L87.94,35.44 C86.14,35.82 83.08,36.04 79.9,36.04 L77.94,36.04 L77.94,24.62 L86.3,24.62 L86.3,26.06 L79.68,26.06 L79.68,34.52 Z M107.76,28.86 C107.76,31.58 105.54,33.46 102.12,33.72 L102.12,36.68 L109.14,36.68 L109.14,38.14 L93.36,38.14 L93.36,36.68 L100.34,36.68 L100.34,33.7 C96.94,33.42 94.74,31.58 94.74,28.86 C94.74,25.94 97.34,24 101.24,24 C105.18,24 107.76,25.94 107.76,28.86 Z M105.94,28.86 C105.94,26.88 104.08,25.48 101.24,25.48 C98.42,25.48 96.56,26.88 96.56,28.86 C96.56,30.86 98.42,32.24 101.24,32.24 C104.06,32.24 105.94,30.86 105.94,28.86 Z M129.62,40.4 L127.86,40.4 L127.86,22.92 L129.62,22.92 L129.62,40.4 Z M124.62,35.94 L116.24,35.94 L116.24,24.68 L124.62,24.68 L124.62,35.94 Z M122.86,34.48 L122.86,26.12 L118,26.12 L118,34.48 L122.86,34.48 Z M142.74,34.24 L142.92,35.7 C141.1,36 138.24,36.24 134.7,36.28 L132.52,36.28 L132.52,29.4 L139.06,29.4 L139.06,25.94 L132.44,25.94 L132.44,24.5 L140.82,24.5 L140.82,30.82 L134.28,30.82 L134.28,34.78 L134.8,34.78 C137.24,34.78 140.62,34.64 142.74,34.24 Z M144.26,22.92 L146.04,22.92 L146.04,40.4 L144.26,40.4 L144.26,22.92 Z M167.44,33.38 L162.32,33.38 L162.32,36.82 L169.36,36.82 L169.36,38.26 L153.58,38.26 L153.58,36.82 L160.54,36.82 L160.54,33.38 L155.48,33.38 L155.48,24.14 L157.26,24.14 L157.26,27.32 L165.68,27.32 L165.68,24.14 L167.44,24.14 L167.44,33.38 Z M165.68,31.92 L165.68,28.76 L157.26,28.76 L157.26,31.92 L165.68,31.92 Z M184.22,40.4 L182.44,40.4 L182.44,22.92 L184.22,22.92 L184.22,40.4 Z M179.1,24.78 C179,30.34 175.76,34.42 170.98,37.02 L169.9,35.68 C174.02,33.7 176.86,30.04 177.18,26.28 L170.68,26.28 L170.68,24.78 L179.1,24.78 Z" id="비디오미리보기" fill="#FFFFFF"></path>
        </g>
    </g>
</svg>