<?xml version="1.0" encoding="UTF-8"?>
<svg width="200px" height="61px" viewBox="0 0 200 61" version="1.1" xmlns="http://www.w3.org/2000/svg" xmlns:xlink="http://www.w3.org/1999/xlink">
    <!-- Generator: Sketch 57.1 (83088) - https://sketch.com -->
    <title>Preview</title>
    <desc>Created with Sketch.</desc>
    <g id="页面-1" stroke="none" stroke-width="1" fill="none" fill-rule="evenodd">
        <g id="画板" fill-rule="nonzero">
            <g id="Preview">
                <path d="M194.494551,4.97379915e-14 C197.535126,4.97379915e-14 200,2.47089054 200,5.51252926 L200,54.6569623 C200,57.7014481 197.525471,60.1694915 194.494551,60.1694915 L5.50544919,60.1694915 C2.46487356,60.1694915 0,57.698601 0,54.6569623 L0,5.51252926 C0,2.46804342 2.47452917,4.97379915e-14 5.50544919,4.97379915e-14 L194.494551,4.97379915e-14 Z M36,13 C26.0588926,13 18,21.0588926 18,31 C18,40.9411074 26.0588926,49 36,49 C45.9411074,49 54,40.9411074 54,31 C54,21.0588926 45.9411074,13 36,13 Z M36,16.3749911 C44.0771232,16.3749911 50.6250089,22.9228768 50.6250089,31 C50.6250089,39.0771232 44.0771232,45.6250089 36,45.6250089 C27.9228768,45.6250089 21.3749911,39.0771232 21.3749911,31 C21.3749911,22.9228768 27.9228768,16.3749911 36,16.3749911 Z M31.4999645,23.1249734 L31.4999645,38.8750266 L45,31 L31.4999645,23.1249734 Z" id="形状结合" fill="#121212"></path>
                <path d="M71.5,32.5 C70.86,33.14 70.16,33.76 69.42,34.4 L68.76,32.2 C71.24,30.12 72.92,28.08 73.82,26.1 L69.22,26.1 L69.22,24.1 L71.94,24.1 C71.64,23.36 71.32,22.64 70.96,21.96 L72.94,21.4 C73.34,22.38 73.68,23.28 73.92,24.1 L75.92,24.1 L75.92,25.86 C75.42,27.26 74.66,28.66 73.64,30.04 C74.66,30.68 75.6,31.38 76.48,32.18 L75.3,33.98 C74.7,33.32 74.12,32.76 73.56,32.28 L73.56,40.08 L71.5,40.08 L71.5,32.5 Z M85.9,22.2 L85.9,33.54 L83.78,33.54 L83.78,24.2 L78.96,24.2 L78.96,33.54 L76.88,33.54 L76.88,22.2 L85.9,22.2 Z M85.22,39.76 L83.22,39.76 C81.96,39.76 81.34,39.08 81.34,37.72 L81.34,35 C81.14,35.5 80.94,35.96 80.72,36.38 C79.74,38.06 78.18,39.34 76.02,40.26 L74.88,38.42 C76.98,37.5 78.4,36.34 79.14,34.96 C79.86,33.46 80.26,31.52 80.34,29.16 L80.34,25.4 L82.34,25.4 L82.34,29.16 C82.28,30.78 82.1,32.22 81.8,33.48 L83.38,33.48 L83.38,37.28 C83.38,37.66 83.52,37.86 83.84,37.86 L84.84,37.86 C85.02,37.86 85.16,37.76 85.26,37.56 C85.36,37.32 85.44,36.68 85.48,35.6 L87.42,36.22 C87.28,37.94 87.04,38.98 86.72,39.3 C86.38,39.6 85.88,39.76 85.22,39.76 Z M99.3866667,21.62 L101.426667,21.62 L101.426667,23.74 L103.786667,23.74 L103.786667,25.7 L101.426667,25.7 L101.426667,27.34 L104.046667,27.34 L104.046667,29.38 L95.4466667,29.38 L95.4466667,27.34 L96.4066667,27.34 L96.4066667,23.28 L98.4066667,23.28 L98.4066667,27.34 L99.3866667,27.34 L99.3866667,21.62 Z M102.666667,30.72 L104.486667,31.14 C103.606667,35.66 101.026667,38.62 96.7266667,40.04 L95.5266667,38.14 C97.6466667,37.5 99.3066667,36.52 100.506667,35.18 L99.2666667,35.18 L99.2666667,29.88 L101.266667,29.88 L101.266667,34.2 C101.926667,33.2 102.386667,32.04 102.666667,30.72 Z M96.9066667,30.78 L98.7066667,31.5 C98.2666667,33.38 97.6666667,34.84 96.9266667,35.86 L95.3866667,34.52 C96.0666667,33.56 96.5866667,32.32 96.9066667,30.78 Z M104.226667,22.2 L113.786667,22.2 L113.786667,24.16 L109.986667,24.16 C109.946667,24.72 109.886667,25.24 109.826667,25.76 L113.306667,25.76 L113.306667,35.56 L111.266667,35.56 L111.266667,27.68 L106.726667,27.68 L106.726667,35.56 L104.706667,35.56 L104.706667,25.76 L107.666667,25.76 C107.726667,25.24 107.786667,24.7 107.826667,24.16 L104.226667,24.16 L104.226667,22.2 Z M110.726667,35.4 C112.026667,36.48 113.126667,37.56 114.046667,38.62 L112.486667,40.18 C111.746667,39.1 110.686667,37.96 109.326667,36.74 L110.726667,35.4 Z M107.926667,28.6 L109.966667,28.6 L109.966667,32.1 C109.886667,34.3 109.406667,36.04 108.546667,37.36 C107.706667,38.56 106.366667,39.5 104.486667,40.16 L103.346667,38.34 C105.106667,37.7 106.286667,36.94 106.906667,36.02 C107.506667,35.02 107.846667,33.7 107.926667,32.1 L107.926667,28.6 Z M130.493333,22.2 L140.493333,22.2 L140.493333,24.16 L136.633333,24.16 C136.553333,24.72 136.453333,25.28 136.333333,25.8 L139.953333,25.8 L139.953333,35.54 L137.993333,35.54 L137.993333,27.64 L132.973333,27.64 L132.973333,35.54 L131.013333,35.54 L131.013333,25.8 L134.313333,25.8 C134.433333,25.28 134.513333,24.72 134.593333,24.16 L130.493333,24.16 L130.493333,22.2 Z M137.213333,35.4 C138.573333,36.48 139.753333,37.56 140.713333,38.62 L139.253333,40.08 C138.453333,39.04 137.333333,37.9 135.873333,36.7 L137.213333,35.4 Z M134.433333,28.58 L136.433333,28.58 L136.433333,32.1 C136.353333,34.26 135.853333,36 134.953333,37.28 C134.053333,38.48 132.613333,39.42 130.653333,40.06 L129.513333,38.28 C131.393333,37.66 132.673333,36.9 133.353333,35.98 C133.993333,34.98 134.353333,33.7 134.433333,32.1 L134.433333,28.58 Z M124.573333,24.84 C125.053333,25.3 125.473333,25.74 125.873333,26.18 C126.413333,25.58 126.913333,24.88 127.393333,24.12 L122.693333,24.12 L122.693333,22.2 L129.613333,22.2 L129.613333,23.82 C128.833333,25.26 127.973333,26.5 127.053333,27.52 C127.313333,27.82 127.553333,28.12 127.773333,28.4 L130.153333,28.4 L130.153333,29.66 C129.833333,31.22 129.473333,32.44 129.053333,33.32 L127.353333,32.66 C127.673333,32 127.953333,31.22 128.213333,30.32 L126.773333,30.32 L126.773333,38.08 C126.773333,39.34 126.173333,39.98 125.013333,39.98 L123.053333,39.98 L122.613333,38.1 C123.213333,38.18 123.773333,38.22 124.313333,38.22 C124.633333,38.22 124.793333,38 124.793333,37.58 L124.793333,30.32 L122.133333,30.32 L122.133333,28.4 L125.513333,28.4 C124.793333,27.58 123.973333,26.72 123.053333,25.8 L124.573333,24.84 Z M163.6,28.74 L163.6,36.1 L161.54,36.1 L161.54,30.64 L154.26,30.64 L154.26,36.1 L152.2,36.1 L152.2,28.74 L163.6,28.74 Z M156.66,31.68 L158.72,31.68 L158.72,33.1 C158.7,33.38 158.66,33.66 158.62,33.94 L160.3,33.94 L160.3,37.06 C160.3,37.58 160.56,37.86 161.1,37.86 L164.02,37.86 C164.3,37.86 164.5,37.74 164.66,37.54 C164.82,37.3 164.92,36.6 165,35.46 L166.92,36.08 C166.76,37.88 166.5,38.94 166.1,39.28 C165.72,39.6 165.16,39.76 164.4,39.76 L160.5,39.76 C159.02,39.76 158.28,39 158.28,37.5 L158.28,35.26 C157.92,36.24 157.36,37.08 156.6,37.76 C155.32,38.84 153.28,39.66 150.44,40.24 L149.24,38.38 C152.08,37.84 154.02,37.18 155.02,36.4 C156,35.54 156.54,34.44 156.66,33.1 L156.66,31.68 Z M154.02,21.6 L156.08,21.6 L156.08,28.18 L154.02,28.18 L154.02,21.6 Z M150.1,22.42 L152.12,22.42 L152.12,27.5 L150.1,27.5 L150.1,22.42 Z M160.36,24.78 C159.76,25.9 159.06,26.84 158.26,27.58 L156.68,26.12 C158,24.78 158.96,23.22 159.52,21.44 L161.52,21.98 L161.22,22.88 L166.64,22.88 L166.64,24.78 L160.36,24.78 Z M162.18,24.98 C163.3,25.62 164.32,26.38 165.28,27.24 L163.98,28.72 C163.02,27.74 162,26.9 160.88,26.2 L162.18,24.98 Z" id="视频预览" fill="#FFFFFF"></path>
            </g>
        </g>
    </g>
</svg>