<?xml version="1.0" encoding="UTF-8"?>
<svg width="200px" height="61px" viewBox="0 0 200 61" version="1.1" xmlns="http://www.w3.org/2000/svg" xmlns:xlink="http://www.w3.org/1999/xlink">
    <!-- Generator: Sketch 57.1 (83088) - https://sketch.com -->
    <title>AppStore</title>
    <desc>Created with Sketch.</desc>
    <g id="页面-1" stroke="none" stroke-width="1" fill="none" fill-rule="evenodd">
        <g id="AppStore" fill-rule="nonzero">
            <path d="M0,5.51252926 C0,2.46804342 2.47452917,0 5.50544919,0 L194.494551,0 C197.535126,0 200,2.47089054 200,5.51252926 L200,54.6569623 C200,57.7014481 197.525471,60.1694915 194.494551,60.1694915 L5.50544919,60.1694915 C2.46487356,60.1694915 0,57.698601 0,54.6569623 L0,5.51252926 Z M44.5372956,30.3715253 C44.4929691,25.3785224 48.5710106,22.9494102 48.7574878,22.8363202 C46.4479223,19.4234796 42.8681722,18.9571768 41.6102156,18.9199965 C38.6036535,18.5993165 35.687273,20.7433798 34.1557146,20.7433798 C32.5935863,20.7433798 30.2351088,18.9509801 27.6932111,19.0036521 C24.4222182,19.054775 21.3621586,20.9742074 19.6838641,23.9548272 C16.2202801,30.0322551 18.8034474,38.9632702 22.1218237,43.8757158 C23.7817762,46.2831395 25.7214443,48.9678661 28.260285,48.8733662 C30.7440997,48.7711204 31.6719,47.2684171 34.6692911,47.2684171 C37.6391692,47.2684171 38.5104149,48.8733662 41.0996962,48.8113991 C43.7654025,48.7711204 45.4436969,46.3962295 47.0455663,43.9671174 C48.9638355,41.2126777 49.7342001,38.4938691 49.7647702,38.354443 C49.7036301,38.3343037 44.5892647,36.3560025 44.5372956,30.3715253 Z M39.6460914,15.6884098 C40.9820016,13.9951575 41.8960454,11.6915288 41.6423141,9.35381814 C39.70876,9.44057215 37.2906709,10.7093495 35.8982062,12.3654215 C34.6662341,13.8247478 33.5657131,16.2166797 33.8500144,18.4660871 C36.0220148,18.6303001 38.2520982,17.355326 39.6460914,15.6884098 Z" id="形状" fill="#121212"></path>
            <path d="M72.46,14.72 L75.12,14.72 L80.58,29 L78.08,29 L76.78,25.42 L70.8,25.42 L69.5,29 L67,29 L72.46,14.72 Z M71.5,23.5 L76.08,23.5 L73.84,17.24 L73.76,17.24 L71.5,23.5 Z M87.82,18.38 C89.34,18.38 90.54,18.92 91.42,20 C92.22,21 92.62,22.28 92.62,23.88 C92.62,25.4 92.22,26.66 91.44,27.66 C90.6,28.74 89.42,29.28 87.94,29.28 C86.74,29.28 85.7,28.7 84.86,27.58 L84.86,32.96 L82.58,32.96 L82.58,18.66 L84.7,18.66 L84.7,19.76 C85.42,18.84 86.46,18.38 87.82,18.38 Z M87.48,20.22 C86.58,20.22 85.9,20.56 85.42,21.28 C84.98,21.9 84.78,22.72 84.78,23.76 L84.78,23.92 C84.78,25 85.04,25.88 85.58,26.54 C86.06,27.14 86.66,27.44 87.4,27.44 C88.4,27.44 89.16,27.1 89.64,26.46 C90.06,25.86 90.28,25 90.28,23.88 C90.28,22.76 90.08,21.9 89.7,21.3 C89.22,20.58 88.48,20.22 87.48,20.22 Z M100.66,18.38 C102.18,18.38 103.38,18.92 104.26,20 C105.06,21 105.46,22.28 105.46,23.88 C105.46,25.4 105.06,26.66 104.28,27.66 C103.44,28.74 102.26,29.28 100.78,29.28 C99.58,29.28 98.54,28.7 97.7,27.58 L97.7,32.96 L95.42,32.96 L95.42,18.66 L97.54,18.66 L97.54,19.76 C98.26,18.84 99.3,18.38 100.66,18.38 Z M100.32,20.22 C99.42,20.22 98.74,20.56 98.26,21.28 C97.82,21.9 97.62,22.72 97.62,23.76 L97.62,23.92 C97.62,25 97.88,25.88 98.42,26.54 C98.9,27.14 99.5,27.44 100.24,27.44 C101.24,27.44 102,27.1 102.48,26.46 C102.9,25.86 103.12,25 103.12,23.88 C103.12,22.76 102.92,21.9 102.54,21.3 C102.06,20.58 101.32,20.22 100.32,20.22 Z M113.5,14.44 C115.18,14.44 116.5,14.78 117.44,15.48 C118.44,16.22 119.02,17.38 119.16,18.94 L116.84,18.94 C116.64,18.06 116.26,17.42 115.74,17.04 C115.22,16.64 114.42,16.46 113.38,16.46 C112.48,16.46 111.8,16.58 111.32,16.84 C110.72,17.14 110.44,17.64 110.44,18.32 C110.44,18.92 110.76,19.42 111.44,19.78 C111.74,19.94 112.56,20.24 113.88,20.66 C115.82,21.26 117.06,21.74 117.62,22.06 C118.86,22.8 119.48,23.82 119.48,25.14 C119.48,26.42 118.98,27.44 117.98,28.18 C116.98,28.9 115.56,29.28 113.74,29.28 C111.98,29.28 110.6,28.94 109.62,28.26 C108.42,27.42 107.76,26.1 107.66,24.28 L109.98,24.28 C110.14,25.36 110.52,26.14 111.14,26.6 C111.7,27 112.56,27.22 113.74,27.22 C114.78,27.22 115.62,27.04 116.22,26.7 C116.82,26.34 117.14,25.88 117.14,25.28 C117.14,24.52 116.68,23.92 115.8,23.48 C115.52,23.34 114.6,23.02 113.02,22.54 C111.26,21.98 110.16,21.58 109.74,21.34 C108.64,20.68 108.1,19.72 108.1,18.46 C108.1,17.2 108.62,16.2 109.7,15.48 C110.7,14.78 111.96,14.44 113.5,14.44 Z M125.32,15.32 L125.32,18.66 L127.62,18.66 L127.62,20.54 L125.32,20.54 L125.32,26.38 C125.32,26.62 125.36,26.8 125.48,26.94 C125.6,27.06 125.76,27.12 126,27.12 L127.36,27.12 L127.36,29 L125.62,29 C124.72,29 124.06,28.76 123.64,28.28 C123.24,27.84 123.04,27.22 123.04,26.38 L123.04,20.54 L121.18,20.54 L121.18,18.66 L123.04,18.66 L123.04,16.26 L125.32,15.32 Z M134.92,18.38 C136.48,18.38 137.74,18.88 138.7,19.92 C139.64,20.94 140.12,22.24 140.12,23.84 C140.12,25.42 139.64,26.72 138.72,27.72 C137.76,28.76 136.48,29.28 134.92,29.28 C133.34,29.28 132.08,28.76 131.12,27.72 C130.18,26.72 129.72,25.42 129.72,23.84 C129.72,22.24 130.18,20.94 131.14,19.92 C132.08,18.88 133.34,18.38 134.92,18.38 Z M134.92,20.24 C133.96,20.24 133.24,20.6 132.72,21.36 C132.28,22 132.06,22.84 132.06,23.84 C132.06,24.84 132.28,25.66 132.72,26.3 C133.24,27.04 133.96,27.42 134.92,27.42 C135.86,27.42 136.6,27.04 137.12,26.3 C137.56,25.64 137.8,24.82 137.8,23.84 C137.8,22.84 137.56,22 137.12,21.36 C136.6,20.6 135.86,20.24 134.92,20.24 Z M147.8,18.38 C148.3,18.38 148.74,18.46 149.1,18.64 L149.1,20.92 C148.58,20.76 148.1,20.7 147.62,20.7 C147.02,20.7 146.48,20.92 146,21.4 C145.44,21.94 145.18,22.64 145.18,23.52 L145.18,29 L142.92,29 L142.92,18.66 L145.18,18.66 L145.18,20.14 C145.46,19.62 145.78,19.22 146.16,18.94 C146.62,18.56 147.16,18.38 147.8,18.38 Z M155.6,18.38 C157.3,18.38 158.6,18.94 159.5,20.1 C160.32,21.14 160.74,22.6 160.74,24.46 L153,24.46 C153.08,25.42 153.34,26.16 153.78,26.66 C154.22,27.16 154.86,27.42 155.68,27.42 C156.38,27.42 156.94,27.26 157.38,26.94 C157.72,26.68 158.02,26.26 158.3,25.68 L160.58,25.68 C160.34,26.64 159.86,27.46 159.14,28.1 C158.22,28.88 157.08,29.28 155.7,29.28 C154.16,29.28 152.94,28.8 152.04,27.86 C151.08,26.88 150.6,25.54 150.6,23.82 C150.6,22.28 151.04,21 151.96,19.96 C152.84,18.9 154.06,18.38 155.6,18.38 Z M155.66,20.24 C154.9,20.24 154.32,20.44 153.88,20.88 C153.46,21.3 153.18,21.92 153.04,22.74 L158.36,22.74 C158.16,21.06 157.26,20.24 155.66,20.24 Z" id="形状" fill="#FFFFFF"></path>
            <path d="M80.16,35.336 C80.912,36.024 81.504,36.744 81.92,37.48 L81.04,38.136 C80.56,37.336 80,36.616 79.344,35.976 L80.16,35.336 Z M78.048,35.368 C78.752,36.008 79.344,36.728 79.792,37.528 L78.928,38.152 C78.464,37.368 77.888,36.648 77.216,35.992 L78.048,35.368 Z M72.512,36.28 L74.048,36.776 C73.888,37.256 73.696,37.72 73.488,38.184 L78.656,38.184 L79.632,38.712 C79.2,41.272 78.208,43.512 76.672,45.448 C75.056,47.464 72.976,48.968 70.432,49.96 L69.552,48.552 C71.728,47.72 73.536,46.52 74.976,44.968 C75.008,44.936 75.024,44.904 75.056,44.872 C74.64,44.584 74.224,44.312 73.808,44.056 C73.008,43.544 72.224,43.096 71.456,42.728 L72.448,41.544 C73.216,41.928 74,42.36 74.784,42.84 C75.2,43.096 75.616,43.368 76.032,43.64 C76.832,42.456 77.408,41.144 77.76,39.72 L72.688,39.72 C72.432,40.136 72.144,40.552 71.856,40.968 C70.96,42.168 69.904,43.24 68.688,44.184 L67.536,43.096 C68.72,42.136 69.744,41.096 70.592,39.976 C71.44,38.808 72.08,37.576 72.512,36.28 Z M89.28,36.312 L90.944,36.312 L90.944,39.064 L95.04,39.064 L96.096,39.656 C95.968,42.2 95.344,44.296 94.192,45.928 C92.976,47.64 91.072,48.984 88.496,49.976 L87.568,48.6 C89.776,47.8 91.424,46.728 92.528,45.352 C93.552,44.072 94.144,42.488 94.304,40.584 L86.08,40.584 L86.08,44.04 L84.416,44.04 L84.416,39.064 L89.28,39.064 L89.28,36.312 Z M100.912,37.256 C102.432,38.024 104.096,39.08 105.92,40.408 L104.88,41.672 C103.088,40.392 101.488,39.4 100.096,38.664 L100.912,37.256 Z M111.664,39.576 L113.2,40.184 C112.096,42.696 110.64,44.76 108.816,46.392 C106.848,48.104 104.48,49.304 101.696,49.976 L100.928,48.504 C103.376,47.928 105.552,46.84 107.456,45.24 C109.28,43.672 110.672,41.784 111.664,39.576 Z M117.024,38.6 L128.512,38.6 L128.512,48.888 L117.024,48.888 L117.024,38.6 Z M118.688,40.136 L118.688,47.352 L126.848,47.352 L126.848,40.136 L118.688,40.136 Z M132.928,42.456 L145.136,42.456 L145.136,43.992 L132.928,43.992 L132.928,42.456 Z M159.904,36.6 C160.656,37.272 161.248,37.992 161.68,38.744 L160.784,39.4 C160.32,38.584 159.76,37.864 159.104,37.24 L159.904,36.6 Z M158.304,37.72 C159.008,38.36 159.6,39.096 160.048,39.896 L159.184,40.504 C158.72,39.704 158.144,38.984 157.472,38.344 L158.304,37.72 Z M152.16,36.52 L153.824,36.52 L153.824,41.464 C155.088,41.672 156.368,41.992 157.664,42.44 C158.848,42.824 160.032,43.288 161.184,43.848 L160.464,45.224 C159.424,44.744 158.368,44.328 157.312,43.976 C156.128,43.576 154.96,43.272 153.824,43.064 L153.824,49.992 L152.16,49.992 L152.16,36.52 Z" id="ダウンロード" fill="#FFFFFF"></path>
        </g>
    </g>
</svg>