<?xml version="1.0" encoding="UTF-8"?>
<svg width="74px" height="117px" viewBox="0 0 74 117" version="1.1" xmlns="http://www.w3.org/2000/svg" xmlns:xlink="http://www.w3.org/1999/xlink">
    <!-- Generator: Sketch 57.1 (83088) - https://sketch.com -->
    <title>编组</title>
    <desc>Created with Sketch.</desc>
    <g id="页面-1" stroke="none" stroke-width="1" fill="none" fill-rule="evenodd">
        <g id="画板" transform="translate(-637.000000, -895.000000)">
            <g id="编组" transform="translate(637.000000, 896.000000)">
                <rect id="矩形" fill="#000000" opacity="0.95" x="0" y="41" width="74" height="75" rx="37"></rect>
                <g id="Close-2" opacity="0.71484375" transform="translate(17.000000, 56.000000)" fill="#FFFFFF" fill-rule="nonzero">
                    <path d="M40.2931035,39 L0.706896525,39 C0.282758593,39 6.39488462e-14,38.7076923 6.39488462e-14,38.2692308 L6.39488462e-14,37.5384615 C6.39488462e-14,37.1 0.282758635,36.8076923 0.706896525,36.8076923 C1.13103441,36.8076923 1.41379309,37.1 1.41379309,37.5384615 L39.5862069,37.5384615 C39.5862069,37.1 39.8689655,36.8076923 40.2931035,36.8076923 C40.7172414,36.8076923 41,37.1 41,37.5384615 L41,38.2692308 C41,38.7076923 40.7172414,39 40.2931035,39 L40.2931035,39 Z M40.2931035,22.9230769 C39.8689655,22.9230769 39.5862069,22.6307692 39.5862069,22.1923077 L39.5862069,21.4615385 L1.41379309,21.4615385 L1.41379309,21.6076923 C1.41379309,22.0461539 1.13103446,22.3384616 0.706896525,22.3384616 C0.282758593,22.3384616 0,22.0461539 0,21.6076923 L0,20.7307692 C0,20.2923077 0.282758635,20 0.706896525,20 L40.2931035,20 C40.7172414,20 41,20.2923077 41,20.7307692 L41,22.1923077 C41,22.6307692 40.7172414,22.9230769 40.2931035,22.9230769 Z" id="形状"></path>
                    <path d="M5.71501437,22 C5.57454474,22 5.43407507,22 5.29360543,21.8518963 C5.01266613,21.5556889 4.87219649,21.1113778 5.1531358,20.8151704 L16.3907076,3.0427268 C16.5311772,2.74651939 16.9525861,2.59841571 17.3739951,2.89462312 C17.795404,3.19083052 17.795404,3.63514161 17.5144647,3.93134898 L6.27689299,21.7037926 C6.13642336,21.8518963 5.99595368,22 5.71501437,22 L5.71501437,22 Z M35.2136402,22 C34.9327009,22 34.7922313,21.8518963 34.6517616,21.7037926 L23.4141899,3.19083048 C23.2737202,2.89462307 23.2737202,2.45031198 23.6951292,2.15410462 C23.9760685,1.85789721 24.3974774,2.00600093 24.6784167,2.45031203 L35.9159885,20.9632741 C36.0564581,21.2594815 36.0564581,21.7037926 35.6350491,22 L35.2136402,22 Z" id="形状"></path>
                    <path d="M19.7931034,8.3076923 C17.3896551,8.3076923 15.5517241,6.50769232 15.5517241,4.15384615 C15.5517241,1.79999999 17.3896551,0 19.7931034,0 C22.1965517,0 24.0344827,1.79999999 24.0344827,4.15384615 C24.0344827,6.50769232 22.1965517,8.3076923 19.7931034,8.3076923 L19.7931034,8.3076923 Z M19.7931034,1.38461541 C18.237931,1.38461541 16.9655173,2.63076926 16.9655173,4.15384615 C16.9655173,5.67692305 18.237931,6.92307693 19.7931034,6.92307693 C21.3482758,6.92307693 22.6206897,5.67692309 22.6206897,4.15384615 C22.6206897,2.63076922 21.3482759,1.38461541 19.7931034,1.38461541 L19.7931034,1.38461541 Z M3.53448275,36 C1.69655173,36 0,34.2 0,32.4 L0,27.1384616 C0,25.3384615 1.69655173,23.5384615 3.53448275,23.5384615 C5.37241377,23.5384615 7.06896549,25.2 7.06896549,27 C7.06896549,27.4153846 6.78620686,27.6923077 6.36206897,27.6923077 C5.93793108,27.6923077 5.6551724,27.4153846 5.6551724,27 C5.6551724,25.8923077 4.66551724,24.9230769 3.53448275,24.9230769 C2.54482759,24.9230769 1.41379309,26.0307692 1.41379309,27.1384616 L1.41379309,32.4 C1.41379309,33.5076923 2.54482759,34.6153846 3.53448275,34.6153846 C4.66551724,34.6153846 5.6551724,33.6461539 5.6551724,32.5384615 C5.6551724,32.1230769 5.93793104,31.8461538 6.36206897,31.8461538 C6.7862069,31.8461538 7.06896549,32.1230769 7.06896549,32.5384615 C7.06896549,34.3384615 5.37241377,36 3.53448275,36 Z M40.2931035,36 L34.637931,36 C34.2137931,36 33.9310345,35.7230769 33.9310345,35.3076923 L33.9310345,24.2307692 C33.9310345,23.8153846 34.2137931,23.5384615 34.637931,23.5384615 L40.2931035,23.5384615 C40.7172414,23.5384615 41,23.8153846 41,24.2307692 C41,24.6461539 40.7172414,24.923077 40.2931035,24.9230769 L35.3448276,24.9230769 L35.3448276,34.6153846 L40.2931035,34.6153846 C40.7172414,34.6153846 41,34.8923077 41,35.3076923 C41,35.7230769 40.7172414,36 40.2931035,36 Z" id="形状"></path>
                    <path d="M38.2954545,30.6666667 L34.0681818,30.6666667 C33.6454545,30.6666667 33.3636364,30.4 33.3636364,30 C33.3636364,29.6 33.6454546,29.3333333 34.0681818,29.3333333 L38.2954545,29.3333333 C38.7181818,29.3333333 39,29.6 39,30 C39,30.4 38.7181818,30.6666667 38.2954545,30.6666667 Z M14.3409091,36 L8.70454543,36 C8.28181815,36 8,35.7333333 8,35.3333333 L8,24.6666667 C8,24.2666667 8.2818182,24 8.70454543,24 C9.12727266,24 9.4090909,24.2666667 9.4090909,24.6666667 L9.4090909,34.6666667 L14.3409091,34.6666667 C14.7636364,34.6666667 15.0454545,34.9333334 15.0454545,35.3333333 C15.0454545,35.7333333 14.7636363,36 14.3409091,36 L14.3409091,36 Z M18.5681818,36 C16.5954545,36 15.0454545,34.5333333 15.0454545,32.6666667 L15.0454545,27.3333333 C15.0454545,25.4666666 16.5954545,24 18.5681818,24 C20.5409091,24 22.0909091,25.4666667 22.0909091,27.3333333 L22.0909091,32.6666667 C22.0909091,34.5333334 20.5409091,36 18.5681818,36 L18.5681818,36 Z M18.5681818,25.3333333 C17.3,25.3333333 16.4545455,26.1333333 16.4545455,27.3333333 L16.4545455,32.6666667 C16.4545455,33.8666667 17.3,34.6666667 18.5681818,34.6666667 C19.8363636,34.6666667 20.6818182,33.8666667 20.6818182,32.6666667 L20.6818182,27.3333333 C20.6818182,26.1333333 19.8363636,25.3333333 18.5681818,25.3333333 L18.5681818,25.3333333 Z M26.8818182,36 C25.05,36 23.6409091,34.5333333 23.5,32.6666667 C23.5,32.2666667 23.7818182,32 24.2045454,32 C24.6272727,32 24.9090909,32.2666667 24.9090909,32.6666667 C24.9090909,33.6 25.6136364,34.6666667 26.8818182,34.6666667 C28.15,34.6666667 29.1363636,33.7333334 29.1363636,32.6666667 C29.1363636,31.3333334 27.8681818,30.9333334 26.8818182,30.6666667 L26.7409091,30.6666667 C24.6272727,30.1333334 23.6409091,29.0666667 23.6409091,27.3333333 C23.6409091,25.4666666 25.05,24 27.0227273,24 C28.8545455,24 30.5454545,25.6 30.6863636,27.3333333 C30.6863636,27.7333333 30.4045454,28 29.9818182,28 C29.559091,28 29.2772727,27.7333333 29.2772727,27.3333333 C29.1363636,26.2666666 28.15,25.3333333 27.0227273,25.3333333 C25.8954546,25.3333333 25.05,26.1333333 25.05,27.3333333 C25.05,28.6666666 26.0363636,29.0666666 27.0227273,29.3333333 L27.3045454,29.3333333 C29.5590909,29.8666666 30.6863636,30.9333333 30.6863636,32.6666667 C30.5454545,34.5333334 28.8545455,36 26.8818182,36 Z" id="形状"></path>
                </g>
                <path d="M37,1 L21,45" id="直线" stroke="#000000" stroke-width="2" stroke-linecap="square"></path>
                <path d="M37,1 L53,45" id="直线" stroke="#000000" stroke-width="2" stroke-linecap="square"></path>
            </g>
        </g>
    </g>
</svg>