<?xml version="1.0" encoding="UTF-8"?>
<svg width="200px" height="61px" viewBox="0 0 200 61" version="1.1" xmlns="http://www.w3.org/2000/svg" xmlns:xlink="http://www.w3.org/1999/xlink">
    <!-- Generator: Sketch 57.1 (83088) - https://sketch.com -->
    <title>Preview</title>
    <desc>Created with Sketch.</desc>
    <g id="页面-1" stroke="none" stroke-width="1" fill="none" fill-rule="evenodd">
        <g id="Preview" fill-rule="nonzero">
            <path d="M194.494551,4.97379915e-14 C197.535126,4.97379915e-14 200,2.47089054 200,5.51252926 L200,54.6569623 C200,57.7014481 197.525471,60.1694915 194.494551,60.1694915 L5.50544919,60.1694915 C2.46487356,60.1694915 0,57.698601 0,54.6569623 L0,5.51252926 C0,2.46804342 2.47452917,4.97379915e-14 5.50544919,4.97379915e-14 L194.494551,4.97379915e-14 Z M36,13 C26.0588926,13 18,21.0588926 18,31 C18,40.9411074 26.0588926,49 36,49 C45.9411074,49 54,40.9411074 54,31 C54,21.0588926 45.9411074,13 36,13 Z M36,16.3749911 C44.0771232,16.3749911 50.6250089,22.9228768 50.6250089,31 C50.6250089,39.0771232 44.0771232,45.6250089 36,45.6250089 C27.9228768,45.6250089 21.3749911,39.0771232 21.3749911,31 C21.3749911,22.9228768 27.9228768,16.3749911 36,16.3749911 Z M31.4999645,23.1249734 L31.4999645,38.8750266 L45,31 L31.4999645,23.1249734 Z" id="形状结合" fill="#121212"></path>
            <path d="M81.82,21.66 L83.6,21.66 L83.6,25.3 L87.56,25.3 C87.56,32.02 87.46,36.16 87.28,37.72 C87.1,39.16 86.22,39.88 84.64,39.88 C84.28,39.88 83.64,39.84 82.72,39.8 L82.26,38.12 C83.06,38.18 83.78,38.22 84.38,38.22 C85.04,38.22 85.42,37.78 85.54,36.9 C85.66,35.9 85.74,32.62 85.78,27.04 L83.6,27.04 L83.6,27.78 C83.54,33.34 82.34,37.42 79.98,39.98 L78.84,38.98 C76.24,39.3 73.28,39.58 69.98,39.78 L69.74,38.1 C71.18,38.02 72.54,37.92 73.84,37.84 L73.84,36.44 L70.4,36.44 L70.4,34.88 L73.84,34.88 L73.84,33.82 L70.34,33.82 L70.34,27.44 L73.84,27.44 L73.84,26.48 L69.92,26.48 L69.92,24.92 L73.84,24.92 L73.84,23.88 C72.8,23.94 71.68,23.98 70.5,23.98 L70,22.48 C73.36,22.48 76.18,22.2 78.48,21.68 L79.32,23.12 C78.24,23.4 77.02,23.6 75.64,23.74 L75.64,24.92 L79.46,24.92 L79.46,26.48 L75.64,26.48 L75.64,27.44 L79.16,27.44 L79.16,33.82 L75.64,33.82 L75.64,34.88 L79.1,34.88 L79.1,36.44 L75.64,36.44 L75.64,37.68 C76.88,37.56 78.02,37.44 79.08,37.32 L79.08,38.26 C80.88,35.94 81.78,32.44 81.82,27.78 L81.82,27.04 L80.02,27.04 L80.02,25.3 L81.82,25.3 L81.82,21.66 Z M77.44,32.42 L77.44,31.26 L75.52,31.26 L75.52,32.42 L77.44,32.42 Z M73.96,32.42 L73.96,31.26 L72.06,31.26 L72.06,32.42 L73.96,32.42 Z M72.06,29.98 L73.96,29.98 L73.96,28.82 L72.06,28.82 L72.06,29.98 Z M75.52,28.82 L75.52,29.98 L77.44,29.98 L77.44,28.82 L75.52,28.82 Z M96.7,31.58 L96.7,33.88 L99,33.88 L99,31.58 L96.7,31.58 Z M100.64,33.88 L102.94,33.88 L102.94,31.58 L100.64,31.58 L100.64,33.88 Z M102.94,30.02 L102.94,27.76 L100.64,27.76 L100.64,30.02 L102.94,30.02 Z M99,27.76 L96.7,27.76 L96.7,30.02 L99,30.02 L99,27.76 Z M90.86,22.56 L108.74,22.56 L108.74,24.4 L90.86,24.4 L90.86,22.56 Z M106.28,27.62 L108.12,27.62 L108.12,40.02 L106.28,40.02 L106.28,39.1 L93.36,39.1 L93.36,40.02 L91.52,40.02 L91.52,27.68 L93.36,27.68 L93.36,37.3 L106.28,37.3 L106.28,27.62 Z M94.88,26.04 L104.76,26.04 L104.76,35.6 L94.88,35.6 L94.88,26.04 Z M124.38,23.14 L126.46,23.14 L126.46,29.7 C126.46,32.22 125.82,34.26 124.58,35.84 C123.26,37.46 121.28,38.6 118.62,39.28 L117.66,37.44 C120.12,36.84 121.88,35.86 122.96,34.46 C123.9,33.22 124.38,31.58 124.38,29.54 L124.38,23.14 Z M114.74,23.56 L116.82,23.56 L116.82,33.24 L114.74,33.24 L114.74,23.56 Z M141.96,33.28 C139.84,35.56 137.14,37.52 133.82,39.14 L132.56,37.48 C138.08,34.88 141.98,31.06 144.3,25.98 L134.68,25.98 L134.68,24.06 L145.84,24.06 L147.08,24.88 C146,27.52 144.72,29.8 143.26,31.72 C144.48,32.56 145.6,33.38 146.62,34.18 C148.3,35.48 149.64,36.66 150.62,37.74 L149,39.08 C148,38 146.74,36.86 145.22,35.66 C144.2,34.86 143.12,34.06 141.96,33.28 Z M158.3,22.4 L160.38,22.4 L160.38,28.58 C161.96,28.84 163.56,29.24 165.18,29.8 C166.66,30.28 168.14,30.86 169.58,31.56 L168.68,33.28 C167.38,32.68 166.06,32.16 164.74,31.72 C163.26,31.22 161.8,30.84 160.38,30.58 L160.38,39.24 L158.3,39.24 L158.3,22.4 Z" id="動画リスト" fill="#FFFFFF"></path>
        </g>
    </g>
</svg>