<?xml version="1.0" encoding="UTF-8"?>
<svg width="200px" height="61px" viewBox="0 0 200 61" version="1.1" xmlns="http://www.w3.org/2000/svg" xmlns:xlink="http://www.w3.org/1999/xlink">
    <!-- Generator: Sketch 57.1 (83088) - https://sketch.com -->
    <title>Preview</title>
    <desc>Created with Sketch.</desc>
    <g id="页面-1" stroke="none" stroke-width="1" fill="none" fill-rule="evenodd">
        <g id="Preview" fill-rule="nonzero">
            <path d="M194.494551,4.97379915e-14 C197.535126,4.97379915e-14 200,2.47089054 200,5.51252926 L200,54.6569623 C200,57.7014481 197.525471,60.1694915 194.494551,60.1694915 L5.50544919,60.1694915 C2.46487356,60.1694915 0,57.698601 0,54.6569623 L0,5.51252926 C0,2.46804342 2.47452917,4.97379915e-14 5.50544919,4.97379915e-14 L194.494551,4.97379915e-14 Z M36,13 C26.0588926,13 18,21.0588926 18,31 C18,40.9411074 26.0588926,49 36,49 C45.9411074,49 54,40.9411074 54,31 C54,21.0588926 45.9411074,13 36,13 Z M36,16.3749911 C44.0771232,16.3749911 50.6250089,22.9228768 50.6250089,31 C50.6250089,39.0771232 44.0771232,45.6250089 36,45.6250089 C27.9228768,45.6250089 21.3749911,39.0771232 21.3749911,31 C21.3749911,22.9228768 27.9228768,16.3749911 36,16.3749911 Z M31.4999645,23.1249734 L31.4999645,38.8750266 L45,31 L31.4999645,23.1249734 Z" id="形状结合" fill="#121212"></path>
            <path d="M71.22,32.6 C70.64,33.2 70.02,33.8 69.38,34.4 L68.72,32.2 C70.96,30.12 72.5,28.08 73.34,26.1 L69.16,26.1 L69.16,24.1 L71.56,24.1 C71.32,23.36 71.06,22.64 70.76,21.96 L72.72,21.4 C73.08,22.38 73.34,23.28 73.52,24.1 L75.42,24.1 L75.42,25.86 C74.98,27.26 74.28,28.64 73.32,30.02 C74.22,30.6 75.06,31.26 75.82,31.98 L74.68,33.7 C74.2,33.16 73.74,32.68 73.3,32.28 L73.3,40.02 L71.22,40.02 L71.22,32.6 Z M76.1,22.18 L85.86,22.18 L85.86,33.7 L83.62,33.7 L83.62,37.34 C83.62,37.66 83.76,37.84 84.06,37.92 L84.92,37.92 C85.22,37.88 85.38,37.6 85.42,37.08 C85.46,36.52 85.5,35.78 85.5,34.82 L87.32,35.52 C87.32,37.44 87.16,38.62 86.88,39.06 C86.6,39.46 85.98,39.68 85.02,39.76 L83.98,39.76 C82.44,39.76 81.68,39.08 81.68,37.76 L81.68,33.7 L80.02,33.7 C79.72,36.6 78.26,38.72 75.62,40.04 L74.52,38.28 C76.6,37.38 77.78,35.86 78.06,33.7 L76.1,33.7 L76.1,22.18 Z M83.82,31.96 L83.82,30.32 L78.14,30.32 L78.14,31.96 L83.82,31.96 Z M78.14,28.68 L83.82,28.68 L83.82,27.06 L78.14,27.06 L78.14,28.68 Z M78.14,25.42 L83.82,25.42 L83.82,23.94 L78.14,23.94 L78.14,25.42 Z M99.82,21.68 L101.76,21.68 L101.76,23.76 L104.22,23.76 L104.22,25.64 L101.76,25.64 L101.76,27.4 L104.76,27.4 L104.76,29.36 L101.56,29.36 L101.56,33.82 C102.08,32.88 102.46,31.84 102.7,30.72 L104.52,31.14 C103.66,35.66 101.08,38.62 96.78,40.04 L95.64,38.2 C98.08,37.46 99.9,36.24 101.1,34.54 L99.6,34.54 L99.6,29.36 L95.48,29.36 L95.48,27.4 L96.56,27.4 L96.56,22.98 L98.46,22.98 L98.46,27.4 L99.82,27.4 L99.82,21.68 Z M97.5,30.14 L99.16,30.96 C98.52,32.68 97.78,34.18 96.92,35.44 L95.36,34.34 C96.18,33.18 96.9,31.78 97.5,30.14 Z M105.2,25.16 L107.72,25.16 C107.84,24.76 107.94,24.38 108.02,23.98 L104.88,23.98 L104.88,22.14 L113.46,22.14 L113.46,23.98 L110.08,23.98 C110,24.38 109.9,24.78 109.8,25.16 L113.08,25.16 L113.08,35.98 L105.2,35.98 L105.2,25.16 Z M111.08,34.24 L111.08,32.88 L107.2,32.88 L107.2,34.24 L111.08,34.24 Z M107.2,31.24 L111.08,31.24 L111.08,29.86 L107.2,29.86 L107.2,31.24 Z M107.2,28.22 L111.08,28.22 L111.08,26.9 L107.2,26.9 L107.2,28.22 Z M107.44,36.12 L108.7,37.22 C107.84,38.28 106.78,39.2 105.54,40 L104.38,38.54 C105.58,37.86 106.6,37.04 107.44,36.12 Z M110.9,36.08 C112.04,36.92 113,37.78 113.8,38.62 L112.46,39.96 C111.8,39.12 110.88,38.22 109.68,37.26 L110.9,36.08 Z M130.7,25.24 L133.52,25.24 C133.68,24.84 133.8,24.44 133.9,24.04 L129.98,24.04 L129.98,22.2 L140,22.2 L140,24.04 L135.96,24.04 C135.84,24.44 135.72,24.84 135.58,25.24 L139.32,25.24 L139.32,36.28 L137.16,36.28 C138.44,37.06 139.52,37.84 140.4,38.62 L139.06,39.96 C138.3,39.14 137.2,38.26 135.76,37.34 L136.86,36.28 L133.2,36.28 L134.38,37.32 C133.34,38.36 132.04,39.28 130.5,40.08 L129.36,38.6 C130.78,37.92 131.96,37.16 132.92,36.28 L130.7,36.28 L130.7,25.24 Z M137.34,34.6 L137.34,33.04 L132.66,33.04 L132.66,34.6 L137.34,34.6 Z M132.66,31.44 L137.34,31.44 L137.34,29.94 L132.66,29.94 L132.66,31.44 Z M132.66,28.34 L137.34,28.34 L137.34,26.92 L132.66,26.92 L132.66,28.34 Z M123.94,24.84 C124.46,25.32 124.92,25.8 125.34,26.24 C125.92,25.58 126.46,24.84 126.98,24.04 L122.36,24.04 L122.36,22.2 L129.12,22.2 L129.12,23.76 C128.28,25.24 127.4,26.48 126.48,27.5 C126.76,27.82 127,28.12 127.2,28.4 L129.92,28.4 L129.92,29.66 C129.62,31.24 129.26,32.46 128.86,33.34 L127.22,32.68 C127.52,32.02 127.78,31.24 128,30.32 L126.44,30.32 L126.44,38.08 C126.44,39.34 125.84,39.98 124.68,39.98 L122.72,39.98 L122.3,38.1 C122.9,38.18 123.46,38.22 124,38.22 C124.3,38.22 124.46,38 124.46,37.58 L124.46,30.32 L121.7,30.32 L121.7,28.4 L124.96,28.4 C124.24,27.58 123.38,26.72 122.42,25.8 L123.94,24.84 Z M151.18,28.16 L152.86,28.16 L152.86,27.26 L151.18,27.26 L151.18,28.16 Z M154.44,27.26 L154.44,28.16 L157,28.16 L157,29.52 L149.38,29.52 L149.38,21.9 L156.74,21.9 L156.74,23.24 L154.44,23.24 L154.44,24.08 L156.38,24.08 L156.38,27.26 L154.44,27.26 Z M151.18,26.08 L154.84,26.08 L154.84,25.28 L151.18,25.28 L151.18,26.08 Z M151.18,24.08 L152.86,24.08 L152.86,23.24 L151.18,23.24 L151.18,24.08 Z M159.34,24.12 C158.94,24.66 158.5,25.12 158,25.52 L161.86,25.52 C161.62,25.04 161.36,24.56 161.08,24.12 L159.34,24.12 Z M157.62,25.74 L156.58,24.44 C157.68,23.68 158.42,22.66 158.82,21.38 L160.5,21.66 C160.4,21.98 160.3,22.28 160.18,22.56 L165.96,22.56 L165.96,24.12 L162.9,24.12 C163.1,24.44 163.28,24.76 163.42,25.04 L162.18,25.52 L165.94,25.52 L165.94,29.42 L157.62,29.42 L157.62,25.74 Z M164.48,28.18 L164.48,26.72 L163.46,26.72 L163.46,28.18 L164.48,28.18 Z M162.26,28.18 L162.26,26.72 L161.3,26.72 L161.3,28.18 L162.26,28.18 Z M160.12,28.18 L160.12,26.72 L159.08,26.72 L159.08,28.18 L160.12,28.18 Z M150.86,30.18 L164.16,30.18 L164.16,37.06 L160.76,37.06 L160.76,37.94 C160.76,38.12 160.86,38.22 161.1,38.22 L164.26,38.22 C164.46,38.22 164.62,38.14 164.7,38 C164.82,37.86 164.9,37.42 164.94,36.66 L166.72,37.22 C166.6,38.46 166.36,39.2 166.04,39.44 C165.72,39.64 165.24,39.76 164.6,39.76 L160.58,39.76 C159.38,39.76 158.8,39.28 158.8,38.34 L158.8,37.06 L156.7,37.06 C156.32,37.78 155.72,38.36 154.88,38.84 C153.82,39.44 151.96,39.92 149.3,40.28 L148.58,38.58 C150.84,38.38 152.46,38.1 153.46,37.74 C153.94,37.54 154.34,37.32 154.64,37.06 L150.86,37.06 L150.86,30.18 Z M162.28,35.74 L162.28,34.96 L152.74,34.96 L152.74,35.74 L162.28,35.74 Z M152.74,33.88 L162.28,33.88 L162.28,33.18 L152.74,33.18 L152.74,33.88 Z M152.74,32.1 L162.28,32.1 L162.28,31.32 L152.74,31.32 L152.74,32.1 Z" id="視頻預覽" fill="#FFFFFF"></path>
        </g>
    </g>
</svg>